<svg xmlns="http://www.w3.org/2000/svg" width="256" height="256" viewBox="0 0 100 100"><rect width="100" height="100" rx="20" fill="#000000"></rect><path fill="#fff" d="M32.40 64.95L32.40 64.95Q32.10 65.05 31.60 65.17Q31.10 65.30 30.50 65.30L30.50 65.30Q28.30 65.30 28.30 63.45L28.30 63.45L28.30 51.35L12.70 51.35L12.70 64.95Q12.40 65.05 11.90 65.17Q11.40 65.30 10.80 65.30L10.80 65.30Q8.60 65.30 8.60 63.45L8.60 63.45L8.60 34.75Q8.85 34.65 9.38 34.52Q9.90 34.40 10.50 34.40L10.50 34.40Q12.70 34.40 12.70 36.25L12.70 36.25L12.70 47.95L28.30 47.95L28.30 34.75Q28.55 34.65 29.08 34.52Q29.60 34.40 30.20 34.40L30.20 34.40Q32.40 34.40 32.40 36.25L32.40 36.25L32.40 64.95ZM47.60 34.75L47.60 34.75Q47.85 34.65 48.38 34.52Q48.90 34.40 49.45 34.40L49.45 34.40Q51.65 34.40 51.65 36.25L51.65 36.25L51.65 57.65Q51.65 59.90 51 61.42Q50.35 62.95 49.23 63.88Q48.10 64.80 46.63 65.20Q45.15 65.60 43.55 65.60L43.55 65.60Q40.70 65.60 39.40 64.92Q38.10 64.25 38.10 63.15L38.10 63.15Q38.10 62.45 38.40 61.95Q38.70 61.45 38.95 61.20L38.95 61.20Q39.70 61.55 40.75 61.85Q41.80 62.15 42.95 62.15L42.95 62.15Q45.20 62.15 46.40 61.07Q47.60 60 47.60 57.45L47.60 57.45L47.60 34.75ZM77.85 57.15L77.85 57.15Q77.50 57.40 76.93 57.60Q76.35 57.80 75.65 57.80L75.65 57.80Q74.85 57.80 74.22 57.55Q73.60 57.30 73.35 56.75L73.35 56.75Q70.65 51.15 68.70 46.50Q66.75 41.85 65.55 38.80L65.55 38.80L65.35 38.80Q65.20 42.55 65.03 45.77Q64.85 49 64.65 52.07Q64.45 55.15 64.25 58.30Q64.05 61.45 63.85 65.05L63.85 65.05Q63.55 65.15 63.08 65.25Q62.60 65.35 62.05 65.35L62.05 65.35Q60.95 65.35 60.50 64.90Q60.05 64.45 60.05 63.60L60.05 63.60Q60.05 63.10 60.13 61.45Q60.20 59.80 60.35 57.45Q60.50 55.10 60.68 52.25Q60.85 49.40 61.08 46.45Q61.30 43.50 61.53 40.65Q61.75 37.80 61.95 35.45L61.95 35.45Q62.35 35.10 63.10 34.80Q63.85 34.50 64.80 34.50L64.80 34.50Q67.10 34.50 68 36.35L68 36.35Q68.95 38.30 69.92 40.47Q70.90 42.65 71.88 44.90Q72.85 47.15 73.78 49.35Q74.70 51.55 75.55 53.55L75.55 53.55L75.75 53.55Q76.85 50.90 77.95 48.32Q79.05 45.75 80.10 43.35Q81.15 40.95 82.10 38.85Q83.05 36.75 83.80 35L83.80 35Q84.25 34.75 84.95 34.63Q85.65 34.50 86.25 34.50L86.25 34.50Q88.60 34.50 88.95 36.10L88.95 36.10Q89.15 37 89.40 39.07Q89.65 41.15 89.90 43.85Q90.15 46.55 90.38 49.65Q90.60 52.75 90.80 55.63Q91 58.50 91.15 60.92Q91.30 63.35 91.40 64.75L91.40 64.75Q90.50 65.35 89.30 65.35L89.30 65.35Q88.55 65.35 87.97 64.97Q87.40 64.60 87.30 63.60L87.30 63.60Q87.05 59.95 86.85 56.35Q86.65 52.75 86.47 49.50Q86.30 46.25 86.15 43.52Q86 40.80 85.90 38.90L85.90 38.90L85.70 38.90Q85.15 40.30 84.43 42.05Q83.70 43.80 82.72 46Q81.75 48.20 80.55 50.97Q79.35 53.75 77.85 57.15Z"></path></svg>